# xmcd
# 
# Track frame offsets:
#     150
#     19738
#     34762
#     51069
#     64930
#     90217
#     107348
#     128329
#     147495
#     158761
#     183866
# 
# Disc length: 2712
# 
# Revision: 4
# Processed by: cddbd v1.5.2PL0 Copyright (c) Steve Scherf et al.
# Submitted via: fre:ac v1.0.31
# 
DISCID=7f0a960b
DTITLE=Emmylou Harris - Cimarron
DYEAR=1981
DGENRE=Country
TTITLE0=Rose Of Cimarron
TTITLE1=Spanish Is A Loving Tongue
TTITLE2=If I Needed You
TTITLE3=Another Lonesome Morning
TTITLE4=The Last Cheater's Waltz
TTITLE5=Born To Run
TTITLE6=The Price You Pay
TTITLE7=Son Of A Rotten Gambler
TTITLE8=Tennessee Waltz
TTITLE9=Tennessee Rose
TTITLE10=[Bonus:] Colors Of Your Heart
EXTD=Recorded 1981, remastered 2000 Eminent Records
EXTT0=
EXTT1=
EXTT2=
EXTT3=
EXTT4=
EXTT5=
EXTT6=
EXTT7=
EXTT8=
EXTT9=
EXTT10=
PLAYORDER=
